<svg xmlns="http://www.w3.org/2000/svg" width="546.771" height="514.883" viewBox="0 0 546.771 514.883">
  <g id="undraw_feeling_proud_qne1_1_" data-name="undraw_feeling_proud_qne1 (1)" transform="translate(-0.001 0.028)">
    <path id="Path_946" data-name="Path 946" d="M516.326,380.018V522.245l23.79,38.771,1.811,2.949H635.8l1.9-183.947Z" transform="translate(-119.367 -87.862)" fill="#e6e6e6"/>
    <path id="Path_947" data-name="Path 947" d="M516.326,380.018V522.245l23.79,38.771,1.46-181Z" transform="translate(-119.367 -87.862)" opacity="0.1"/>
    <path id="Path_948" data-name="Path 948" d="M185.07,375.084V517.311l-23.79,38.771-1.811,2.948H65.6L63.7,375.084Z" transform="translate(-14.727 -86.721)" fill="#e6e6e6"/>
    <path id="Path_949" data-name="Path 949" d="M213.973,375.084V517.311l-23.79,38.771-1.46-181Z" transform="translate(-43.63 -86.721)" opacity="0.1"/>
    <path id="Path_950" data-name="Path 950" d="M557.792,362.831v8.533H47.67V359.038l47.409-24.653H516.072Z" transform="translate(-11.021 -77.312)" fill="#e6e6e6"/>
    <path id="Path_951" data-name="Path 951" d="M557.792,370.244v8.533H47.67V366.451Z" transform="translate(-11.021 -84.725)" opacity="0.1"/>
    <path id="Path_952" data-name="Path 952" d="M132.941,424.887H110.184L100.7,418.25H143.37Z" transform="translate(-23.281 -96.7)" fill="#3f3d56"/>
    <path id="Path_953" data-name="Path 953" d="M132.941,460.653H110.184l-9.482-6.637H143.37Z" transform="translate(-23.281 -104.969)" fill="#3f3d56"/>
    <path id="Path_954" data-name="Path 954" d="M132.941,511.219H110.184l-9.482-6.638H143.37Z" transform="translate(-23.281 -116.659)" fill="#3f3d56"/>
    <path id="Path_955" data-name="Path 955" d="M132.941,561.784H110.184l-9.482-6.637H143.37Z" transform="translate(-23.281 -128.349)" fill="#3f3d56"/>
    <path id="Path_956" data-name="Path 956" d="M592.121,429.82h22.757l9.482-6.637H581.691Z" transform="translate(-134.479 -97.841)" fill="#3f3d56"/>
    <path id="Path_957" data-name="Path 957" d="M592.121,465.586h22.757l9.482-6.637H581.691Z" transform="translate(-134.479 -106.109)" fill="#3f3d56"/>
    <path id="Path_958" data-name="Path 958" d="M592.121,516.152h22.757l9.482-6.637H581.691Z" transform="translate(-134.479 -117.8)" fill="#3f3d56"/>
    <path id="Path_959" data-name="Path 959" d="M592.121,566.717h22.757l9.482-6.637H581.691Z" transform="translate(-134.479 -129.489)" fill="#3f3d56"/>
    <path id="Path_960" data-name="Path 960" d="M800.033,235.615H608.455a7.244,7.244,0,0,0-7.245,7.246V371.912a7.245,7.245,0,0,0,7.246,7.245H681.18l-2.725,17.4s-15.571,8.272-4.622,8.515,62.526,0,62.526,0,9.975,0-5.839-8.758l-2.563-17.152h72.076a7.245,7.245,0,0,0,7.245-7.246V242.86a7.244,7.244,0,0,0-7.246-7.245Z" transform="translate(-326.894 -143.013)" fill="#3f3d56"/>
    <rect id="Rectangle_185" data-name="Rectangle 185" width="192.2" height="107.535" transform="translate(281.25 100.265)" fill="#f2f2f2"/>
    <circle id="Ellipse_126" data-name="Ellipse 126" cx="1.216" cy="1.216" r="1.216" transform="translate(376.133 95.643)" fill="#f2f2f2"/>
    <circle id="Ellipse_127" data-name="Ellipse 127" cx="4.623" cy="4.623" r="4.623" transform="translate(372.727 221.668)" fill="#f2f2f2"/>
    <path id="Path_961" data-name="Path 961" d="M442.093,355.318v2.433H311.2V355.8l.18-.487,3.226-8.758H439.416Z" transform="translate(-71.946 -80.127)" fill="#3f3d56"/>
    <path id="Path_962" data-name="Path 962" d="M780.326,467.494c-.238,1.019-1.139,2.095-3.172,3.112-7.3,3.649-22.14-.973-22.14-.973s-11.435-1.946-11.435-7.055a9.126,9.126,0,0,1,1-.6c3.069-1.623,13.243-5.629,31.283.17a7.524,7.524,0,0,1,3.429,2.247,3.588,3.588,0,0,1,1.032,3.1Z" transform="translate(-359.808 -194.684)" fill="#3f3d56"/>
    <path id="Path_963" data-name="Path 963" d="M780.628,467.494c-8.934,3.423-16.9,3.679-25.069-2a17.946,17.946,0,0,0-10.676-3.516c3.069-1.623,13.243-5.629,31.283.17A7.523,7.523,0,0,1,779.6,464.4a3.588,3.588,0,0,1,1.032,3.1Z" transform="translate(-360.109 -194.684)" opacity="0.1"/>
    <ellipse id="Ellipse_128" data-name="Ellipse 128" cx="3.163" cy="0.973" rx="3.163" ry="0.973" transform="translate(406.154 268.866)" fill="#f2f2f2"/>
    <path id="Path_964" data-name="Path 964" d="M442.093,357.952v2.433H311.2v-1.947l.18-.487Z" transform="translate(-71.946 -82.76)" opacity="0.1"/>
    <path id="Path_965" data-name="Path 965" d="M331.71,115.152A6.576,6.576,0,0,0,327.9,116a9.95,9.95,0,0,0-2.58,3.405,40.736,40.736,0,0,1-11.1,12.535c-3.3,2.416-7.49,5.428-6.925,9.881A13.355,13.355,0,0,0,308.9,146c3.042,6.141,11.343,10.886,10.526,17.893,3.022-5.06-1.02-7.561,2-12.621,1.439-2.409,3.94-5.129,6.112-3.616.728.507,1.205,1.415,1.963,1.86,1.808,1.061,3.731-.967,5.331-2.4,5.518-4.953,13.364-3.656,20.23-2.112,3.242.729,6.8,1.684,8.718,4.783,2.519,4.073-2.394,8.473-3.635,13.078a2.509,2.509,0,0,0,2.693,3.123c2.06-.2,4.5-.37,4.623-1.274,2.592.092,5.768-.2,6.879-2.9a11.35,11.35,0,0,0,.532-3.3c.408-4.534,2.332-8.67,3.607-12.985s1.829-9.372-.322-13.2a15.273,15.273,0,0,0-2.818-3.425C363.133,117.083,347.083,115.135,331.71,115.152Z" transform="translate(-258.933 -115.159)" fill="#2f2e41"/>
    <path id="Path_966" data-name="Path 966" d="M323.567,188.8s2.655,22.125-7.08,23.9,8.85,31.86,8.85,31.86l44.25,5.31-10.62-35.4s-7.08-2.655-2.655-20.355S323.567,188.8,323.567,188.8Z" transform="translate(-260.418 -131.215)" fill="#ffb8b8"/>
    <path id="Path_967" data-name="Path 967" d="M47.028,569.318l3.54,48.676H69.153l-5.309-48.676Z" transform="translate(-10.872 -131.625)" fill="#ffb8b8"/>
    <path id="Path_968" data-name="Path 968" d="M224.3,449.068l2.655,40.71,20.356-8.85-7.966-33.63Z" transform="translate(-51.856 -103.416)" fill="#ffb8b8"/>
    <path id="Path_969" data-name="Path 969" d="M274.167,431.358s.885,51.331,6.2,68.146,4.425,17.7,3.54,20.355-1.77.885-1.77,5.31-1.77,74.341,0,80.535-5.31,16.815,0,17.7,30.09,0,30.975-5.31-7.08-7.08-3.54-10.62,8.85-76.111,8.85-76.111l12.39-50.446,23.01-26.55h48.676l15.045,58.411s-6.2,16.815-1.77,16.815,30.975,5.31,30.975-14.16-8.85-77-10.62-78.765.885-7.965-1.77-10.62-33.63-21.24-45.135-24.78-27.645-7.753-27.645-7.753Z" transform="translate(-251.286 -179.517)" fill="#2f2e41"/>
    <path id="Path_970" data-name="Path 970" d="M491.55,596.778s-13.275-4.425-19.47,8.85-3.54,16.815-3.54,16.815,20.355,7.08,23.9,3.54c1.54-1.54,6.431-2.075,11.465-2.188,7.667-.172,9.707-11.02,2.466-13.546q-.324-.113-.656-.2C498.63,608.283,491.55,596.778,491.55,596.778Z" transform="translate(-296.092 -226.345)" fill="#2f2e41"/>
    <circle id="Ellipse_129" data-name="Ellipse 129" cx="26.55" cy="26.55" r="26.55" transform="translate(56.511 19.084)" fill="#ffb8b8"/>
    <path id="Path_971" data-name="Path 971" d="M300.9,233.225s43.365,8.85,53.986-5.31,15.045,39.825,15.045,39.825l5.31,56.641-7.965,30.975s-41.6,33.63-54.871,36.285-33.63,4.425-33.63,4.425,6.2-98.236,6.2-100.006S300.9,233.225,300.9,233.225Z" transform="translate(-252.351 -140.686)" fill="#2c7cff"/>
    <path id="Path_972" data-name="Path 972" d="M308.394,213.187s-9.648-5.527-12.3-.217S268.656,231.554,266,231.554s5.31,73.456,1.77,82.306-20.355,73.456-10.621,78.766,2.655-5.31,12.39,7.965,57.526,13.275,60.181,7.965-21.24-45.136-16.815-82.306,11.505-88.5,5.31-95.581S308.394,213.187,308.394,213.187Z" transform="translate(-246.66 -137.245)" fill="#2f2e41"/>
    <path id="Path_973" data-name="Path 973" d="M366.258,220.444l1.233-4.242s36.823,12.207,38.593,20.173.885,63.721-5.31,68.146-15.045,11.505-8.85,22.125,13.275,22.125,18.585,23.01,15.045,7.08,12.39,13.275-34.515-5.31-34.515-5.31-21.24-15.93-20.355-40.71S366.258,220.444,366.258,220.444Z" transform="translate(-272.576 -138.525)" fill="#2f2e41"/>
    <path id="Path_974" data-name="Path 974" d="M394.526,357.554l-21.24,39.825s-30.975,31.86-13.275,35.4,27.435-29.205,27.435-29.205l23.01-32.745Z" transform="translate(-269.869 -171.204)" fill="#ffb8b8"/>
    <path id="Path_975" data-name="Path 975" d="M334.76,124.19a6.026,6.026,0,0,0-3.1.6,7.237,7.237,0,0,0-2.1,2.407,30.578,30.578,0,0,1-9.034,8.86c-2.684,1.707-6.1,3.836-5.638,6.984a8.734,8.734,0,0,0,1.308,2.948,23.19,23.19,0,0,1,2.818,14.454l7.381-10.728c1.172-1.7,3.207-3.625,4.976-2.556.592.358.981,1,1.6,1.315,1.471.75,3.037-.684,4.34-1.7,4.492-3.5,10.879-2.584,16.468-1.493,2.639.515,5.537,1.191,7.1,3.38,2.592,3.639-.115,8.9,1.4,13.1a3.862,3.862,0,0,0,1.6-2.55c2.11.065,4.7-.142,5.6-2.05a7.064,7.064,0,0,0,.433-2.333c.332-3.2,1.9-6.128,2.936-9.178s1.489-6.624-.262-9.328a11.285,11.285,0,0,0-2.294-2.421C360.34,125.555,347.274,124.177,334.76,124.19Z" transform="translate(-260.69 -117.249)" fill="#2f2e41"/>
    <path id="Path_976" data-name="Path 976" d="M404.419,237.836l8.246,2.189s19.19,49.142,14.764,82.772-7.08,26.55-7.08,26.55-7.08-15.93-23.01-12.39Z" transform="translate(-279.762 -143.527)" fill="#2f2e41"/>
    <path id="Path_977" data-name="Path 977" d="M288.657,738.644c-2.134,2.9-1.706,7.046-3.6,10.111-1.639,2.656-4.727,4.049-6.777,6.4a17.168,17.168,0,0,0-1.742,2.506c-1.9,3.185-3.447,7.267-1.574,10.468,1.506,2.576,4.673,3.582,7.577,4.268,3.67.867,7.484,1.561,11.2.9s7.341-2.936,8.665-6.468a25,25,0,0,1,.927-2.614c2.012-3.962,8.324-4,10.384-7.942,1.441-2.755.116-6.086-1.208-8.9l-4.045-8.593c-1.342-2.852-6.784-1.212-9.62-1.9C295.143,736,291.319,735.015,288.657,738.644Z" transform="translate(-251.275 -258.709)" fill="#2f2e41"/>
    <path id="Path_978" data-name="Path 978" d="M254.6,378.714l37.17,57.526s23.01,29.205,30.09,15.93-24.78-35.4-24.78-35.4l-23.9-44.25Z" transform="translate(-246.762 -174.663)" fill="#ffb8b8"/>
    <path id="Path_979" data-name="Path 979" d="M270.827,239.606l-7.08-1.77s-14.16,4.425-17.7,23.01-.885,92.926,3.54,93.811,21.855-12.944,24.645-10.012-6.06-12.113-3.405-20.078S270.827,239.606,270.827,239.606Z" transform="translate(-244.406 -143.527)" fill="#2f2e41"/>
    <g id="Group_13" data-name="Group 13" transform="translate(307.48 135.584)">
      <rect id="Rectangle_55" data-name="Rectangle 55" width="22.874" height="5.507" transform="translate(28.804)" fill="#2c7cff"/>
      <rect id="Rectangle_56" data-name="Rectangle 56" width="8.048" height="5.507" transform="translate(122.842)" fill="#2c7cff"/>
      <rect id="Rectangle_57" data-name="Rectangle 57" width="8.048" height="5.507" transform="translate(138.938)" fill="#2c7cff"/>
      <rect id="Rectangle_58" data-name="Rectangle 58" width="54.644" height="5.507" transform="translate(59.727)" fill="#2c7cff"/>
      <rect id="Rectangle_59" data-name="Rectangle 59" width="22.874" height="5.507" transform="translate(0 35.581)" fill="#2c7cff"/>
      <rect id="Rectangle_60" data-name="Rectangle 60" width="8.048" height="5.507" transform="translate(94.037 35.581)" fill="#2c7cff"/>
      <rect id="Rectangle_61" data-name="Rectangle 61" width="8.048" height="5.507" transform="translate(110.134 35.581)" fill="#2c7cff"/>
      <rect id="Rectangle_62" data-name="Rectangle 62" width="54.644" height="5.507" transform="translate(30.922 35.581)" fill="#2c7cff"/>
      <rect id="Rectangle_63" data-name="Rectangle 63" width="22.874" height="5.507" transform="translate(94.461 12.284)" fill="#2c7cff"/>
      <rect id="Rectangle_64" data-name="Rectangle 64" width="22.874" height="5.507" transform="translate(125.383 12.284)" fill="#2c7cff"/>
      <rect id="Rectangle_66" data-name="Rectangle 66" width="8.048" height="5.507" transform="translate(0 12.284)" fill="#2c7cff"/>
      <rect id="Rectangle_67" data-name="Rectangle 67" width="8.048" height="5.507" transform="translate(16.097 12.284)" fill="#2c7cff"/>
      <rect id="Rectangle_68" data-name="Rectangle 68" width="54.644" height="5.507" transform="translate(32.193 12.284)" fill="#2c7cff"/>
      <rect id="Rectangle_69" data-name="Rectangle 69" width="22.874" height="5.507" transform="translate(47.019 24.145)" fill="#2c7cff"/>
      <rect id="Rectangle_70" data-name="Rectangle 70" width="22.874" height="5.507" transform="translate(16.097 24.145)" fill="#2c7cff"/>
      <rect id="Rectangle_71" data-name="Rectangle 71" width="8.048" height="5.507" transform="translate(0 24.145)" fill="#2c7cff"/>
      <rect id="Rectangle_73" data-name="Rectangle 73" width="8.048" height="5.507" transform="translate(140.209 24.145)" fill="#2c7cff"/>
      <rect id="Rectangle_74" data-name="Rectangle 74" width="54.644" height="5.507" transform="translate(77.517 24.145)" fill="#2c7cff"/>
    </g>
  </g>
</svg>
