<svg fill="#39cbf9" xmlns="http://www.w3.org/2000/svg"  viewBox="0 0 64 64" width="50px" height="50px"><path d="M 38.765625 3.7871094 A 1.0001 1.0001 0 0 0 37.871094 5.2558594 L 38.785156 7.0351562 A 1.000176 1.000176 0 1 0 40.564453 6.1210938 L 39.650391 4.3417969 A 1.0001 1.0001 0 0 0 38.765625 3.7871094 z M 54.048828 4.7363281 A 1.0001 1.0001 0 0 0 53.779297 4.765625 L 49.898438 5.734375 A 1.0001 1.0001 0 0 0 49.169922 6.9453125 L 52.716797 21.173828 L 46.058594 8.1074219 A 1.0001 1.0001 0 0 0 44.712891 7.6699219 L 41.150391 9.4863281 A 1.0001 1.0001 0 0 0 40.712891 10.830078 L 47.371094 23.898438 L 37.943359 12.664062 A 1.0001 1.0001 0 0 0 36.535156 12.541016 L 33.470703 15.111328 A 1.0001 1.0001 0 0 0 33.347656 16.519531 L 42.787109 27.769531 L 31.060547 18.931641 A 1.0001 1.0001 0 0 0 29.660156 19.128906 L 27.253906 22.322266 A 1.0001 1.0001 0 0 0 27.201172 23.451172 A 1.0001 1.0001 0 0 0 27.257812 23.533203 A 1.0001 1.0001 0 0 0 27.449219 23.722656 L 39.167969 32.552734 L 25.763672 26.585938 A 1.0001 1.0001 0 0 0 24.806641 26.664062 A 1.0001 1.0001 0 0 0 24.726562 26.722656 A 1.0001 1.0001 0 0 0 24.443359 27.091797 L 22.816406 30.746094 A 1.0001 1.0001 0 0 0 23.322266 32.066406 L 36.714844 38.029297 L 22.326172 35.232422 A 1.0001 1.0001 0 0 0 21.154297 36.023438 L 20.390625 39.949219 A 1.0001 1.0001 0 0 0 21.181641 41.123047 L 30.837891 43 L 21 43 A 1.0001 1.0001 0 0 0 20 44 L 20 48 A 1.0001 1.0001 0 0 0 21 49 L 41 49 A 1.0001 1.0001 0 0 0 41.099609 48.994141 A 1.0001 1.0001 0 0 0 42 48 L 42 44.078125 L 42.75 40.220703 A 1.0001 1.0001 0 0 0 42.761719 39.933594 A 1.0001 1.0001 0 0 0 42.914062 39.693359 L 44.541016 36.041016 A 1.0001 1.0001 0 0 0 44.619141 35.763672 A 1.0001 1.0001 0 0 0 44.822266 35.5625 L 47.230469 32.369141 A 1.0001 1.0001 0 0 0 47.369141 32.113281 A 1.0001 1.0001 0 0 0 47.613281 31.964844 L 50.677734 29.392578 A 1.0001 1.0001 0 0 0 50.867188 29.177734 A 1.0001 1.0001 0 0 0 51.136719 29.087891 L 54.701172 27.271484 A 1.0001 1.0001 0 0 0 54.933594 27.107422 A 1.0001 1.0001 0 0 0 55.220703 27.080078 L 59.101562 26.113281 A 1.0001 1.0001 0 0 0 59.830078 24.900391 L 54.992188 5.4941406 A 1.0001 1.0001 0 0 0 54.048828 4.7363281 z M 34.449219 6.3164062 A 1.0001 1.0001 0 0 0 33.628906 7.8847656 L 34.742188 9.546875 A 1.0002501 1.0002501 0 0 0 36.404297 8.4335938 L 35.292969 6.7714844 A 1.0001 1.0001 0 0 0 34.449219 6.3164062 z M 53.292969 6.9492188 L 57.648438 24.414062 L 55.707031 24.898438 L 51.353516 7.4316406 L 53.292969 6.9492188 z M 30.443359 9.3125 A 1.0001 1.0001 0 0 0 29.710938 10.970703 L 31.005859 12.494141 A 1.0001 1.0001 0 1 0 32.529297 11.199219 L 31.234375 9.6757812 A 1.0001 1.0001 0 0 0 30.443359 9.3125 z M 44.730469 9.90625 L 52.902344 25.943359 L 51.121094 26.851562 L 42.949219 10.814453 L 44.730469 9.90625 z M 26.796875 12.738281 A 1.0001 1.0001 0 0 0 26.158203 14.478516 L 27.621094 15.84375 A 1.0004891 1.0004891 0 0 0 28.986328 14.380859 L 27.523438 13.015625 A 1.0001 1.0001 0 0 0 26.796875 12.738281 z M 37.054688 14.714844 L 48.625 28.503906 L 47.09375 29.789062 L 35.523438 16 L 37.054688 14.714844 z M 23.613281 16.597656 A 1.0001 1.0001 0 0 0 23.080078 18.408203 L 24.689453 19.595703 A 1.0001 1.0001 0 1 0 25.876953 17.988281 L 24.269531 16.798828 A 1.0001 1.0001 0 0 0 23.613281 16.597656 z M 20.982422 20.78125 A 1.0001 1.0001 0 0 0 20.882812 20.783203 A 1.0001 1.0001 0 0 0 20.462891 22.65625 L 22.197266 23.650391 A 1.0001 1.0001 0 1 0 23.191406 21.916016 L 21.457031 20.921875 A 1.0001 1.0001 0 0 0 20.982422 20.78125 z M 30.65625 21.130859 L 45.03125 31.962891 L 43.828125 33.560547 L 29.453125 22.728516 L 30.65625 21.130859 z M 18.738281 25.246094 A 1.0001 1.0001 0 0 0 18.335938 27.171875 L 20.175781 27.960938 A 1.0009553 1.0009553 0 0 0 20.964844 26.121094 L 19.125 25.333984 A 1.0001 1.0001 0 0 0 18.738281 25.246094 z M 25.863281 28.818359 L 42.306641 36.140625 L 41.494141 37.966797 L 25.048828 30.646484 L 25.863281 28.818359 z M 22.925781 37.386719 L 40.595703 40.822266 L 40.212891 42.785156 L 22.544922 39.349609 L 22.925781 37.386719 z M 12 40 A 1.0001 1.0001 0 0 0 11 41 L 11 58 A 1.0001 1.0001 0 0 0 12 59 L 50 59 A 1.0001 1.0001 0 0 0 51 58 L 51 41 A 1.0001 1.0001 0 0 0 50 40 L 45 40 A 1.0001 1.0001 0 0 0 44 41 L 44 52 L 18 52 L 18 41 A 1.0001 1.0001 0 0 0 17 40 L 12 40 z M 13 42 L 16 42 L 16 53 A 1.0001 1.0001 0 0 0 17 54 L 45 54 A 1.0001 1.0001 0 0 0 46 53 L 46 42 L 49 42 L 49 57 L 13 57 L 13 42 z M 22 45 L 40 45 L 40 47 L 22 47 L 22 45 z"/></svg>